# xmcd
#
# Track frame offsets: 
#        150
#        22055
#        36110
#        47860
#        60475
#        77463
#        89929
#        104280
#        114603
#        127952
#        139860
#        157445
#        173398
#        184363
#        193726
#        208041
#        225471
#        236584
#        246543
#        256550
#        269658
#        283839
#        298032
#        313722
#        324740
#
# Disc length: 4480 seconds
#
# Revision: 0
# Processed by: cddbd v1.5.2PL0 Copyright (c) Steve Scherf et al.
# Submitted via: ExactAudioCopy v1.0b3
#
DISCID=7f117e19
DTITLE=Various Artist - Queens of Country
DYEAR=1900
DGENRE=Country
TTITLE0=Brenda Lee - Big Four Poster Bed
TTITLE1=Deborah Allen - I've Been Wrong Before
TTITLE2=Skeeter Davis - (I Can't Help You) I'm Falling Too
TTITLE3=Billie Jo Spears - What I've Got In Mind
TTITLE4=Lynn Anderson - Blue Bayou
TTITLE5=Lorrie Morgan - The First Few Days Of Love
TTITLE6=Holly Dunn - Love Someone Like Me
TTITLE7=Sandy Posey - Born A Woman
TTITLE8=Donna Fargo - Daddy
TTITLE9=Dolly Parton - Making Believe
TTITLE10=Billie Jo Spears - For The Good Times
TTITLE11=Tammy Wynette - Till I Can Make It On My Own
TTITLE12=Donna Fargo - All That's Keeping Me Alive
TTITLE13=Skeeter Davis - I Can't Stay Mad At You
TTITLE14=Brenda Lee - The End Of The World
TTITLE15=Deborah Allen - I Hurt For You
TTITLE16=Sandy Posey - Put A Little Love In Your Heart
TTITLE17=Donna Fargo - Sticks and Stones
TTITLE18=Dolly Parton - Release Me
TTITLE19=Billie Jo Spears - '57 Chevrolet
TTITLE20=Lynn Anderson - Two Doors Down
TTITLE21=Lorrie Morgan - Two People In Love
TTITLE22=Tammy Wynette - Crying In The Rain
TTITLE23=Donna Fargo - Wishful Thinking
TTITLE24=Billie Jo Spears - Here You Come Again
EXTD=
EXTT0=
EXTT1=
EXTT2=
EXTT3=
EXTT4=
EXTT5=
EXTT6=
EXTT7=
EXTT8=
EXTT9=
EXTT10=
EXTT11=
EXTT12=
EXTT13=
EXTT14=
EXTT15=
EXTT16=
EXTT17=
EXTT18=
EXTT19=
EXTT20=
EXTT21=
EXTT22=
EXTT23=
EXTT24=
PLAYORDER=
